<?xml version="1.0" encoding="UTF-8"?>
<svg width="1200" height="630" viewBox="0 0 1200 630" fill="none" xmlns="http://www.w3.org/2000/svg">
  <!-- Gradient Background -->
  <defs>
    <linearGradient id="bg-gradient" x1="0%" y1="0%" x2="100%" y2="100%">
      <stop offset="0%" stop-color="#FF6B6B" />
      <stop offset="50%" stop-color="#FFD166" />
      <stop offset="100%" stop-color="#06D6A0" />
    </linearGradient>
  </defs>
  
  <!-- Background -->
  <rect width="1200" height="630" fill="url(#bg-gradient)"/>
  
  <!-- Logo -->
  <g transform="translate(600, 200) scale(8)">
    <rect width="32" height="32" rx="8" fill="black"/>
    <path d="M16 8C11.5817 8 8 11.5817 8 16C8 20.4183 11.5817 24 16 24C20.4183 24 24 20.4183 24 16C24 11.5817 20.4183 8 16 8Z" fill="white"/>
    <path d="M13 14C13.5523 14 14 13.5523 14 13C14 12.4477 13.5523 12 13 12C12.4477 12 12 12.4477 12 13C12 13.5523 12.4477 14 13 14Z" fill="black"/>
    <path d="M19 14C19.5523 14 20 13.5523 20 13C20 12.4477 19.5523 12 19 12C18.4477 12 18 12.4477 18 13C18 13.5523 18.4477 14 19 14Z" fill="black"/>
    <path d="M16 20C17.6569 20 19 18.6569 19 17H13C13 18.6569 14.3431 20 16 20Z" fill="black"/>
    <path d="M23 10C22.4477 10 22 10.4477 22 11C22 11.5523 22.4477 12 23 12C23.5523 12 24 11.5523 24 11C24 10.4477 23.5523 10 23 10Z" fill="#FF6B6B"/>
    <path d="M9 10C8.44772 10 8 10.4477 8 11C8 11.5523 8.44772 12 9 12C9.55228 12 10 11.5523 10 11C10 10.4477 9.55228 10 9 10Z" fill="#FFD166"/>
    <path d="M23 20C22.4477 20 22 20.4477 22 21C22 21.5523 22.4477 22 23 22C23.5523 22 24 21.5523 24 21C24 20.4477 23.5523 20 23 20Z" fill="#06D6A0"/>
  </g>
  
  <!-- Text -->
  <text x="600" y="400" font-family="Inter, sans-serif" font-size="72" font-weight="bold" text-anchor="middle" fill="black">PetMoji</text>
  <text x="600" y="480" font-family="Inter, sans-serif" font-size="36" font-weight="normal" text-anchor="middle" fill="black">AI Pet Emotion Translator</text>
  
  <!-- Thought Bubbles -->
  <g transform="translate(900, 200)">
    <circle cx="0" cy="0" r="60" fill="white" stroke="black" stroke-width="4"/>
    <circle cx="-30" cy="30" r="20" fill="white" stroke="black" stroke-width="4"/>
    <circle cx="-50" cy="50" r="10" fill="white" stroke="black" stroke-width="4"/>
    <text x="0" y="15" font-family="Arial, sans-serif" font-size="36" text-anchor="middle" fill="black">💭</text>
  </g>
  
  <g transform="translate(300, 200)">
    <circle cx="0" cy="0" r="60" fill="white" stroke="black" stroke-width="4"/>
    <circle cx="30" cy="30" r="20" fill="white" stroke="black" stroke-width="4"/>
    <circle cx="50" cy="50" r="10" fill="white" stroke="black" stroke-width="4"/>
    <text x="0" y="15" font-family="Arial, sans-serif" font-size="36" text-anchor="middle" fill="black">❤️</text>
  </g>
</svg>
